<?xml version="1.0" standalone="no"?>
<!DOCTYPE svg PUBLIC "-//W3C//DTD SVG 20010904//EN"
 "http://www.w3.org/TR/2001/REC-SVG-20010904/DTD/svg10.dtd">
<svg version="1.0" xmlns="http://www.w3.org/2000/svg"
 width="239.000000pt" height="203.000000pt" viewBox="0 0 239.000000 203.000000"
 preserveAspectRatio="xMidYMid meet">

<g transform="translate(0.000000,203.000000) scale(0.100000,-0.100000)" fill="#000091" stroke="none" >
<path d="M1 1998 c0 -28 2 -30 9 -13 12 28 12 45 0 45 -5 0 -10 -15 -9 -32z"/>
<path d="M1593 1930 c-42 -25 -63 -68 -63 -129 l0 -50 -147 -3 c-172 -4 -207
-16 -258 -87 l-30 -43 -3 -254 -3 -254 -140 0 -139 0 0 50 c0 62 -21 105 -63
130 -30 18 -52 20 -297 20 -245 0 -267 -2 -297 -20 -55 -33 -63 -62 -63 -220
0 -158 8 -187 63 -220 30 -18 52 -20 295 -20 291 0 306 3 342 63 13 21 20 50
20 85 l0 52 139 0 140 0 3 -254 3 -254 30 -43 c51 -71 86 -83 258 -87 l147 -3
0 -52 c0 -61 25 -109 69 -132 44 -22 538 -22 582 0 59 31 69 63 69 225 0 162
-10 194 -69 225 -44 22 -538 22 -582 0 -44 -23 -69 -71 -69 -132 l0 -53 -135
0 c-226 0 -225 -2 -225 325 l0 235 180 0 180 0 0 -52 c0 -62 25 -110 69 -133
44 -22 538 -22 582 0 59 31 69 64 69 223 0 160 -8 189 -63 222 -30 18 -52 20
-295 20 -291 0 -306 -3 -342 -63 -13 -21 -20 -50 -20 -84 l0 -53 -180 0 -180
0 0 235 c0 327 -1 325 225 325 l135 0 0 -50 c0 -62 21 -105 63 -130 30 -18 52
-20 297 -20 245 0 267 2 297 20 55 33 63 62 63 222 0 124 -3 147 -20 175 -36
60 -51 63 -342 63 -243 0 -265 -2 -295 -20z m565 -72 c17 -17 17 -279 0 -296
-17 -17 -519 -17 -536 0 -8 8 -12 56 -12 148 0 92 4 140 12 148 17 17 519 17
536 0z m-1440 -640 c17 -17 17 -279 0 -296 -17 -17 -519 -17 -536 0 -17 17
-17 279 0 296 17 17 519 17 536 0z m1440 0 c17 -17 17 -279 0 -296 -17 -17
-519 -17 -536 0 -8 8 -12 56 -12 148 0 92 4 140 12 148 17 17 519 17 536 0z
m0 -640 c17 -17 17 -279 0 -296 -17 -17 -519 -17 -536 0 -8 8 -12 56 -12 148
0 92 4 140 12 148 17 17 519 17 536 0z"/>
</g>
</svg>
